<svg width="15" height="14" viewBox="0 0 15 14" fill="none" xmlns="http://www.w3.org/2000/svg">
<path d="M4.00294 6.02434C4.85525 7.55977 6.2284 8.81306 7.90341 9.59977L9.20554 8.40615C9.36534 8.25966 9.60209 8.21083 9.80925 8.27594C10.4722 8.47668 11.1883 8.58519 11.9222 8.58519C12.2478 8.58519 12.5141 8.82934 12.5141 9.12775V11.0213C12.5141 11.3197 12.2478 11.5638 11.9222 11.5638C6.36453 11.5638 1.86035 7.43498 1.86035 2.3404C1.86035 2.042 2.1267 1.79785 2.45223 1.79785H4.52379C4.84933 1.79785 5.11567 2.042 5.11567 2.3404C5.11567 3.0186 5.23405 3.66966 5.45304 4.27732C5.51815 4.46721 5.4708 4.67881 5.30507 4.83072L4.00294 6.02434Z" fill="#1C0C03"/>
</svg>
