<svg width="75" height="67" viewBox="0 0 75 67" fill="none" xmlns="http://www.w3.org/2000/svg">
<path d="M56.466 15.8768C57.2693 15.8768 57.9213 16.5289 57.9213 17.3322C57.9213 18.1355 57.2693 18.7909 56.466 18.7909C55.6627 18.7909 55.0073 18.1388 55.0073 17.3322C55.0073 16.5255 55.6594 15.8768 56.466 15.8768Z" fill="#1C0C03"/>
<path d="M46.6252 20.2495C47.4308 20.2495 48.0839 19.5965 48.0839 18.7908C48.0839 17.9852 47.4308 17.3322 46.6252 17.3322C45.8196 17.3322 45.1665 17.9852 45.1665 18.7908C45.1665 19.5965 45.8196 20.2495 46.6252 20.2495Z" fill="#1C0C03"/>
<path d="M61.6117 16.8718C61.6117 19.527 59.4606 21.6781 56.8087 21.6781C54.1569 21.6781 52.0024 19.527 52.0024 16.8718C52.0024 14.2166 54.1535 12.0688 56.8087 12.0688C59.4639 12.0688 61.6117 14.2199 61.6117 16.8718Z" stroke="#1C0C03" stroke-width="0.336104" stroke-miterlimit="10"/>
<path d="M50.8631 18.7909C50.8631 21.4461 48.7121 23.5972 46.0568 23.5972C43.4016 23.5972 41.2539 21.4461 41.2539 18.7909C41.2539 16.1357 43.405 13.9846 46.0568 13.9846C48.7087 13.9846 50.8631 16.1357 50.8631 18.7909Z" stroke="#1C0C03" stroke-width="0.336104" stroke-miterlimit="10"/>
<path d="M41.0222 1.07487C42.1918 0.244695 50.4868 6.57017 52.2211 7.59865C53.8781 8.58343 59.1146 10.7816 61.5749 13.2351C64.2671 15.9206 63.9344 18.5388 67.3223 19.9572C68.8919 20.6126 74.6191 22.2461 74.5754 23.5165C75.1771 25.2643 72.6159 28.0371 70.0279 29.395C67.8769 30.8402 57.6593 30.5478 55.5654 34.2853C52.1136 39.4075 62.5463 59.3654 59.5583 60.9753C52.1875 66.1883 54.7923 49.2856 52.6917 46.7279C52.2144 46.6438 49.0114 48.3781 48.6148 48.7445C47.4216 50.9829 53.5521 60.5216 51.233 62.5617C50.339 63.8221 48.1106 64.3935 46.8132 63.6339C45.2067 62.6962 46.0099 60.2997 44.4975 55.2246C43.711 52.5895 43.3178 51.2686 42.4809 50.5494C39.9937 48.4017 37.12 51.0166 29.524 50.5494C26.0218 50.3309 24.2439 49.6284 23.3868 50.7208C22.1298 51.6148 26.0521 62.7533 24.9329 64.0204C24.1161 64.9447 22.0189 64.7464 20.8963 63.765C18.5032 61.1703 21.5046 47.1009 13.9053 50.6771C13.2566 51.1006 13.5188 65.5026 10.5577 66.2521C4.16501 67.8755 7.42522 59.9367 8.19826 50.5897C8.34278 48.8453 9.87878 38.7521 5.58001 29.1799C3.4323 24.3938 0.104874 20.3135 1.2241 19.1841C1.70809 18.6934 2.82395 18.8783 3.62724 19.2917C5.14979 20.0681 6.64546 21.752 8.24195 23.7115C9.33765 25.0559 10.1745 26.3566 10.8165 27.5061C12.7693 29.8084 16.4933 28.0808 23.9884 27.8489C31.1239 27.6304 35.742 25.0525 36.1285 21.799C36.4343 19.2682 31.5171 4.91654 33.3825 3.73681C36.031 1.71011 42.0809 8.32463 43.7816 10.3547C43.9967 10.6774 44.158 10.8891 44.2387 10.9462C44.2488 10.9496 44.2555 10.9664 44.2622 10.9597C44.2622 10.9429 44.0874 10.7177 43.7816 10.3547C42.4943 8.38849 39.3349 2.27812 41.0222 1.07487ZM61.6119 16.8718C61.6119 14.2199 59.4608 12.0688 56.809 12.0688C54.1571 12.0688 52.0027 14.2199 52.0027 16.8718C52.0027 19.5236 54.1537 21.678 56.809 21.678C59.4642 21.678 61.6119 19.527 61.6119 16.8718ZM50.8633 18.7909C50.8633 16.1357 48.7122 13.9846 46.057 13.9846C43.4018 13.9846 41.2541 16.1357 41.2541 18.7909C41.2541 21.4461 43.4051 23.5972 46.057 23.5972C48.7089 23.5972 50.8633 21.4461 50.8633 18.7909Z" fill="#1C0C03"/>
<path d="M46.6252 20.2497C47.4308 20.2497 48.0839 19.5966 48.0839 18.791C48.0839 17.9854 47.4308 17.3323 46.6252 17.3323C45.8196 17.3323 45.1665 17.9854 45.1665 18.791C45.1665 19.5966 45.8196 20.2497 46.6252 20.2497Z" stroke="#1C0C03" stroke-width="0.336104" stroke-miterlimit="10"/>
<path d="M57.9213 17.3322C57.9213 18.1388 57.2693 18.7909 56.466 18.7909C55.6627 18.7909 55.0073 18.1388 55.0073 17.3322C55.0073 16.5255 55.6594 15.8768 56.466 15.8768C57.2727 15.8768 57.9213 16.5289 57.9213 17.3322Z" stroke="#1C0C03" stroke-width="0.336104" stroke-miterlimit="10"/>
<path d="M43.7816 10.3547C42.0809 8.32463 36.031 1.71011 33.3825 3.73681C31.5171 4.91654 36.4343 19.2682 36.1285 21.799C35.742 25.0525 31.1239 27.6304 23.9884 27.8489C16.4933 28.0808 12.7693 29.8084 10.8165 27.5061C10.1745 26.3566 9.33765 25.0559 8.24195 23.7115C6.64546 21.752 5.14979 20.0681 3.62724 19.2917C2.82395 18.8783 1.70809 18.6934 1.2241 19.1841C0.104874 20.3135 3.4323 24.3938 5.58001 29.1799C9.87878 38.7521 8.34278 48.8453 8.19826 50.5897C7.42522 59.9367 4.16501 67.8755 10.5577 66.2521C13.5188 65.5026 13.2566 51.1006 13.9053 50.6771C21.5046 47.1009 18.5032 61.1703 20.8963 63.765C22.0188 64.7464 24.1161 64.9447 24.9329 64.0204C26.0521 62.7533 22.1298 51.6148 23.3868 50.7208C24.2439 49.6284 26.0218 50.3309 29.5241 50.5494C37.12 51.0166 39.9937 48.4017 42.4809 50.5494C43.3178 51.2686 43.711 52.5895 44.4975 55.2246C46.0099 60.2997 45.2067 62.6962 46.8132 63.6339C48.1106 64.3935 50.339 63.8221 51.233 62.5617C53.5521 60.5216 47.4216 50.9829 48.6148 48.7445C49.0114 48.3781 52.2144 46.6438 52.6917 46.7279C54.7923 49.2856 52.1875 66.1883 59.5583 60.9753C62.5463 59.3654 52.1136 39.4075 55.5654 34.2853C57.6593 30.5478 67.8769 30.8402 70.0279 29.395C72.6159 28.0371 75.177 25.2643 74.5754 23.5165C74.6191 22.2461 68.8919 20.6126 67.3223 19.9572C63.9344 18.5388 64.2671 15.9206 61.5749 13.2351C59.1146 10.7816 53.8781 8.58343 52.2211 7.59865C50.4869 6.57017 42.1918 0.244695 41.0222 1.07487C39.3349 2.27812 42.4943 8.38849 43.7816 10.3547Z" stroke="#1C0C03" stroke-width="0.336104" stroke-linecap="round" stroke-linejoin="round"/>
<path d="M43.7812 10.3547C43.9964 10.6774 44.1577 10.8891 44.2383 10.9463C44.2484 10.9496 44.2552 10.9664 44.2619 10.9597C44.2619 10.9429 44.0871 10.7177 43.7812 10.3547Z" stroke="#1C0C03" stroke-width="0.336104" stroke-linecap="round" stroke-linejoin="round"/>
</svg>
