<svg width="19" height="20" viewBox="0 0 19 20" fill="none" xmlns="http://www.w3.org/2000/svg">
<path d="M16.1408 13.638V9.28226C16.1408 8.47982 16.1408 8.07861 15.9233 7.77654C15.7472 7.53289 15.4652 7.40299 14.9625 7.22852C14.8595 8.46291 14.4506 9.72422 13.8088 10.8272C13.0609 12.1123 11.9503 13.2614 10.5276 13.8817C10.116 14.0607 9.67201 14.153 9.22322 14.153C8.77442 14.153 8.33043 14.0607 7.91887 13.8817C6.49616 13.2614 5.38551 12.1123 4.63765 10.8272C4.1504 9.98876 3.80402 9.07608 3.61231 8.12549C3.31793 8.08168 3.09273 8.10397 2.8975 8.21235C2.81999 8.25588 2.74777 8.30824 2.68229 8.36837C2.30566 8.71118 2.30566 9.34836 2.30566 10.6235V14.4128C2.30566 15.2144 2.30566 15.6157 2.52318 15.9177C2.7407 16.2198 3.12117 16.3466 3.8821 16.6003L4.17725 16.6986C5.38936 17.1022 5.99503 17.3043 6.6153 17.3059C6.80207 17.3059 6.98808 17.2928 7.17332 17.2659C7.78667 17.1775 8.36313 16.8893 9.51606 16.3128C10.3992 15.8708 10.8412 15.6503 11.31 15.548C11.4745 15.5119 11.6413 15.4865 11.8096 15.4727C12.2885 15.4327 12.7704 15.5134 13.7365 15.6741C14.715 15.837 15.2046 15.9185 15.562 15.7133C15.6834 15.6441 15.791 15.5526 15.8794 15.4443C16.1408 15.1253 16.1408 14.6295 16.1408 13.638Z" fill="#1C0C03"/>
<path fill-rule="evenodd" clip-rule="evenodd" d="M9.22352 2.2395C6.67632 2.2395 4.61182 4.20101 4.61182 6.62062C4.61182 9.02178 6.08372 11.8234 8.38035 12.8249C8.64644 12.9404 8.93343 13 9.22352 13C9.5136 13 9.80059 12.9404 10.0667 12.8249C12.3633 11.8242 13.8352 9.02178 13.8352 6.62062C13.8352 4.20101 11.7707 2.2395 9.22352 2.2395ZM9.22352 8.38844C9.63122 8.38844 10.0222 8.22648 10.3105 7.93819C10.5988 7.6499 10.7608 7.2589 10.7608 6.8512C10.7608 6.4435 10.5988 6.0525 10.3105 5.76422C10.0222 5.47593 9.63122 5.31397 9.22352 5.31397C8.81582 5.31397 8.42482 5.47593 8.13653 5.76422C7.84824 6.0525 7.68628 6.4435 7.68628 6.8512C7.68628 7.2589 7.84824 7.6499 8.13653 7.93819C8.42482 8.22648 8.81582 8.38844 9.22352 8.38844Z" fill="#1C0C03"/>
</svg>
