<svg width="72" height="72" viewBox="0 0 72 72" fill="none" xmlns="http://www.w3.org/2000/svg">
<g clip-path="url(#clip0_71_137)">
<path d="M71.824 35.1794C71.8598 36.2058 71.8598 38.3621 71.3007 41.1724C69.3048 41.5966 68.0534 41.5286 66.4769 41.3311C48.8588 39.1327 41.2427 13.0366 43.2678 6.69395C43.5279 5.87804 44.1325 3.98722 46.0828 3.09037C47.7471 2.32303 48.7418 2.36835 49.6844 2.70508C62.1114 7.68469 71.3332 20.7619 71.824 35.1794Z" fill="#1C0C03"/>
<path d="M39.2374 51.2547L39.2211 51.313C39.2309 51.5688 39.2244 51.8116 39.2244 52.0933C39.2244 55.4249 37.7389 58.1284 35.9056 58.1284C34.0722 58.1284 32.5835 55.4249 32.5835 52.0933C32.5835 51.8084 32.577 51.5623 32.5867 51.3001L32.5737 51.2547C34.2835 50.7885 35.8828 49.338 35.8991 47.6188C35.8991 47.4763 35.9023 47.3403 35.9023 47.2108C35.9023 47.3436 35.9023 47.4763 35.9023 47.6188C35.9186 49.338 37.5243 50.7917 39.2341 51.2547H39.2374ZM36.2144 53.8287C36.2144 52.7862 36.2794 51.9476 35.8991 51.9476C35.5187 51.9476 35.574 52.7862 35.574 53.8287C35.574 54.8713 35.574 55.7195 35.8958 55.7195C36.2176 55.7195 36.2144 54.8745 36.2144 53.8287Z" fill="#1C0C03"/>
<path d="M37.546 40.4049L37.5468 40.4052C37.917 40.5561 38.3011 40.6369 38.6343 40.6277C38.8002 40.6231 38.9779 40.5955 39.1403 40.5231C39.2338 40.4815 39.3305 40.4206 39.4134 40.3356C39.4023 40.4824 39.3479 40.6945 39.2207 40.9779C39.0452 41.369 38.772 41.8078 38.4628 42.2389C37.8417 43.105 37.1314 43.8635 36.9369 44.0379L36.9369 44.0379L36.9331 44.0413C36.6747 44.2777 36.4088 44.4631 36.0778 44.4954L36.0778 44.4954L36.0737 44.4958C35.7142 44.5339 35.3624 44.3776 34.9428 44.0756L34.9425 44.0754C34.6827 43.8887 33.9203 43.1545 33.2808 42.2844C32.9641 41.8534 32.6953 41.4128 32.5343 41.0118C32.368 40.5981 32.3474 40.3042 32.4102 40.1183L32.4104 40.1178C32.6053 39.5384 33.0623 39.1021 33.7124 38.8124C34.3665 38.5208 35.1858 38.3939 36.0169 38.4302C36.1909 38.4378 36.3638 38.4525 36.5342 38.474C36.4504 38.5471 36.3763 38.6415 36.327 38.7615C36.2363 38.9825 36.2662 39.2007 36.3316 39.3699C36.3957 39.5357 36.5022 39.6804 36.6167 39.8004C36.8467 40.0415 37.1763 40.2535 37.546 40.4049Z" fill="#1C0C03" stroke="#1C0C03"/>
<path d="M28.7315 6.73594C30.7566 13.0786 23.1438 39.1747 5.52571 41.3731C3.94593 41.5674 2.69447 41.6353 0.70187 41.2112C0.139522 38.4009 0.142773 36.2445 0.175279 35.2214C0.669364 20.8038 9.89122 7.72345 22.3149 2.74707C23.2575 2.41035 24.2555 2.36502 25.9198 3.13236C27.8701 4.02921 28.4714 5.92004 28.7315 6.73594Z" fill="#1C0C03"/>
<path d="M0.70187 41.2113C0.139522 38.401 0.142773 36.2447 0.175279 35.2215C0.669364 20.804 9.89122 7.72357 22.3149 2.74719" stroke="#1C0C03" stroke-width="0.27991" stroke-linecap="round" stroke-linejoin="round"/>
<path d="M0.702148 41.2112C2.69474 41.6353 3.94621 41.5674 5.52599 41.3731C23.144 39.1747 30.7569 13.0786 28.7318 6.73594C28.4717 5.92004 27.8704 4.02921 25.92 3.13236C24.2557 2.36502 23.2578 2.41035 22.3152 2.74707" stroke="#1C0C03" stroke-width="0.27991" stroke-linecap="round" stroke-linejoin="round"/>
<path d="M71.3008 41.1725C71.8599 38.3621 71.8599 36.2058 71.8242 35.1794C71.3333 20.7619 62.1115 7.68469 49.6846 2.70508" stroke="#1C0C03" stroke-width="0.27991" stroke-linecap="round" stroke-linejoin="round"/>
<path d="M71.3007 41.1724C69.3048 41.5966 68.0534 41.5286 66.4769 41.3311C48.8588 39.1327 41.2427 13.0366 43.2678 6.69395C43.5279 5.87804 44.1325 3.98722 46.0828 3.09037C47.7471 2.32303 48.7418 2.36835 49.6844 2.70508" stroke="#1C0C03" stroke-width="0.27991" stroke-linecap="round" stroke-linejoin="round"/>
<path d="M36.1264 44.993C35.5771 45.0513 35.096 44.802 34.6507 44.4814C34.0201 44.0282 31.4586 41.3732 31.9365 39.9583C32.9409 36.9732 39.221 37.5074 39.8873 40.0458C40.2059 41.2599 37.7257 44.0023 37.2706 44.4102C36.9911 44.666 36.6238 44.9444 36.1264 44.993Z" stroke="#1C0C03" stroke-width="0.27991" stroke-linecap="round" stroke-linejoin="round"/>
<path d="M35.9023 47.2108C35.9023 47.3436 35.9023 47.4763 35.9023 47.6188C35.9186 49.338 37.5244 50.7917 39.2342 51.2547C39.2634 51.2644 39.2894 51.2742 39.3187 51.2806C41.5031 51.8343 43.967 51.1608 44.9064 49.1502" stroke="#1C0C03" stroke-width="2" stroke-linecap="round" stroke-linejoin="round"/>
<path d="M35.9023 45.6212C35.8991 45.9547 35.8991 46.3562 35.9023 46.8354" stroke="#1C0C03" stroke-width="2" stroke-linecap="round" stroke-linejoin="round"/>
<path d="M35.9053 45.1711C35.9053 45.281 35.9053 45.4038 35.9053 45.5363" stroke="#1C0C03" stroke-width="2" stroke-linecap="round" stroke-linejoin="round"/>
<path d="M35.8986 45.1711C35.8986 45.2812 35.9018 45.4043 35.9018 45.537V45.6212C35.9018 45.9547 35.9018 46.3561 35.9018 46.8353C35.9018 46.9551 35.9018 47.0814 35.9018 47.2109C35.9018 47.3404 35.8986 47.4764 35.8986 47.6189C35.8823 49.3381 34.2831 50.7886 32.5733 51.2548C32.544 51.2645 32.5115 51.2743 32.4823 51.2807C30.2979 51.8344 27.8339 51.1609 26.8945 49.1503" stroke="#1C0C03" stroke-width="2" stroke-linecap="round" stroke-linejoin="round"/>
<path d="M39.2208 51.313C39.2306 51.5688 39.2241 51.8116 39.2241 52.0933C39.2241 55.4249 37.7386 58.1284 35.9053 58.1284C34.0719 58.1284 32.5832 55.4249 32.5832 52.0933C32.5832 51.8084 32.5767 51.5623 32.5864 51.3" stroke="#1C0C03" stroke-width="0.27991" stroke-linecap="round" stroke-linejoin="round"/>
<path d="M36.2144 53.8287C36.2144 54.8745 36.2176 55.7196 35.8958 55.7196C35.574 55.7196 35.574 54.8745 35.574 53.8287C35.574 52.783 35.5285 51.9476 35.8991 51.9476C36.2697 51.9476 36.2144 52.7862 36.2144 53.8287Z" stroke="#1C0C03" stroke-width="0.0699774" stroke-linecap="round" stroke-linejoin="round"/>
</g>
<path d="M70.5 35.8578C70.5 54.8274 55.0594 70.2155 36 70.2155C16.9406 70.2155 1.5 54.8274 1.5 35.8578C1.5 16.8881 16.9406 1.5 36 1.5C55.0594 1.5 70.5 16.8881 70.5 35.8578Z" stroke="#1C0C03" stroke-width="3"/>
<defs>
<clipPath id="clip0_71_137">
<rect width="72" height="55.977" fill="white" transform="translate(0 2.31335)"/>
</clipPath>
</defs>
</svg>
